<svg
  width="38px"
  height="38px"
  viewBox="0 0 38 38"
  version="1.1"
  xmlns="http://www.w3.org/2000/svg"
  xmlns:xlink="http://www.w3.org/1999/xlink"
>
  <g id="Homepage" stroke="none" stroke-width="1" fill="none" fill-rule="evenodd">
    <g id="Homepage_High-Fidelity_1130" transform="translate(-978.000000, -2299.000000)">
      <g id="Home-Chargers" transform="translate(978.000000, 2299.000000)">
        <path
          d="M36.9791271,5.77798861 L36.341556,5.77798861 L36.341556,3.86527514 C36.341556,3.51317894 36.056081,3.22770398 35.7039848,3.22770398 C35.3518886,3.22770398 35.0664137,3.51317894 35.0664137,3.86527514 L35.0664137,5.77798861 L33.7912713,5.77798861 L33.7912713,3.86527514 C33.7912713,3.51317894 33.5057964,3.22770398 33.1537002,3.22770398 C32.801604,3.22770398 32.516129,3.51317894 32.516129,3.86527514 L32.516129,5.77798861 L31.8785579,5.77798861 C31.5264617,5.77798861 31.2409867,6.06346357 31.2409867,6.41555977 L31.2409867,8.9658444 C31.2428546,10.4800759 32.30786,11.7847931 33.7912713,12.0898808 L33.7912713,30.0056926 C33.7912713,31.7661735 32.3638965,33.1935484 30.6034156,33.1935484 C28.8429346,33.1935484 27.4155598,31.7661735 27.4155598,30.0056926 L27.4155598,17.8918406 C27.4133806,16.1319823 25.9875622,14.706164 24.227704,14.7039848 L21.4345944,14.7039848 C21.0824982,14.7039848 20.7970232,14.9894598 20.7970232,15.341556 C20.7970232,15.6936522 21.0824982,15.9791271 21.4345944,15.9791271 L24.227704,15.9791271 C25.2839925,15.9791271 26.1404175,16.8355521 26.1404175,17.8918406 L26.1404175,30.0056926 C26.1404175,32.4706772 28.1384309,34.4686907 30.6034156,34.4686907 C33.0684002,34.4686907 35.0664137,32.4706772 35.0664137,30.0056926 L35.0664137,12.0898808 C36.5498251,11.7847931 37.6148304,10.4800759 37.6166983,8.9658444 L37.6166983,6.41555977 C37.6166983,6.06346357 37.3312233,5.77798861 36.9791271,5.77798861 Z"
          id="Path"
          fill="#FA9429"
        ></path>
        <path
          d="M2.55028463,0.0398481973 L21.6774194,0.0398481973 C23.0858041,0.0398481973 24.227704,1.1817481 24.227704,2.59013283 L24.227704,8.9658444 C24.227704,10.3742291 23.0858041,11.516129 21.6774194,11.516129 L2.55028463,11.516129 C1.14189991,11.516129 0,10.3742291 0,8.9658444 L0,2.59013283 C0,1.1817481 1.14189991,0.0398481973 2.55028463,0.0398481973 Z"
          id="Path"
          fill="#262F3E"
        ></path>
        <polygon
          id="Path"
          fill="#F5F5F5"
          points="2.55028463 2.59013283 21.6774194 2.59013283 21.6774194 8.9658444 2.55028463 8.9658444"
        ></polygon>
        <polygon
          id="Path"
          fill="#1ABC9C"
          points="21.6136 11.516129 20.402277 37.0189753 3.82542694 37.0189753 2.61410399 11.516129"
        ></polygon>
        <polygon
          id="Path"
          stroke="#1ABC9C"
          stroke-width="0.5"
          fill="#262F3E"
          points="10.2011385 31.9184061 17.2144213 22.9924099 13.3889943 22.9924099 15.9392789 16.6166983 9.56356736 16.6166983 7.01328273 25.5426945 11.4762808 25.5426945"
        ></polygon>
      </g>
    </g>
  </g>
</svg>