<svg
  width="17px"
  height="25px"
  viewBox="0 0 17 25"
  version="1.1"
  xmlns="http://www.w3.org/2000/svg"
  xmlns:xlink="http://www.w3.org/1999/xlink"
>
  <g id="Homepage" stroke="none" stroke-width="1" fill="none" fill-rule="evenodd">
    <g id="Homepage_High-Fidelity_1130" transform="translate(-132.000000, -1253.000000)">
      <g id="Awareness" transform="translate(65.000000, 1235.000000)">
        <g id="icon_awareness" transform="translate(67.000000, 18.000000)">
          <path
            d="M8.50014489,0 C3.83002273,0 0.0305710227,3.72495265 0.0305710227,8.30340909 C0.0305710227,10.627178 1.03724148,12.8622159 2.79225,14.4352746 L2.80755966,14.4484848 C2.86121591,14.4921402 2.91525852,14.5386837 2.97002557,14.5857008 L3.02295739,14.6310133 C4.22990909,15.7098011 4.92203125,17.2439867 4.92203125,18.8399621 L12.0777273,18.8399621 C12.0777273,17.2409091 12.7710568,15.7070076 13.9810028,14.6310133 C14.0517074,14.5679924 14.1230398,14.5048295 14.2066392,14.4352746 C15.9626619,12.8619318 16.9699119,10.6267992 16.9699119,8.30340909 C16.9698153,3.72495265 13.1702188,0 8.50014489,0 Z"
            id="Path"
            fill="#1ABC9C"
          ></path>
          <g id="Group" transform="translate(3.428977, 1.278409)">
            <path
              d="M0.646193182,2.68645833 L0.0218295455,2.07433712 C1.37294318,0.749857955 3.16600852,0.0202651515 5.07111932,0.0202651515 L5.07111932,0.886079545 C3.4020767,0.886079545 1.83049432,1.52547348 0.646193182,2.68645833 Z"
              id="Path"
              fill="#FFFFFF"
            ></path>
            <polygon
              id="Path"
              fill="#FA9429"
              points="4.4529858 10.9625473 3.53928409 8.79090909 2.42172727 8.79090909 2.42172727 7.9250947 4.13027557 7.9250947 4.4529858 8.69214015 5.68934943 5.75345644 6.60300284 7.9250947 7.72055966 7.9250947 7.72055966 8.79090909 6.01201136 8.79090909 5.68934943 8.02391098"
            ></polygon>
          </g>
          <g id="Group" transform="translate(3.622159, 8.333333)" fill="#242D3C">
            <polygon
              id="Rectangle"
              transform="translate(6.966568, 6.320725) rotate(-164.240343) translate(-6.966568, -6.320725) "
              points="6.54833008 1.96817817 7.43027115 1.96365136 7.38480555 10.6732717 6.50286449 10.6777985"
            ></polygon>
            <polygon
              id="Rectangle"
              transform="translate(2.789026, 6.319804) rotate(-105.759657) translate(-2.789026, -6.319804) "
              points="-1.56352061 5.90156584 7.14609971 5.85610025 7.1415729 6.73804132 -1.56804742 6.78350691"
            ></polygon>
            <path
              d="M1.34555966,2.60179924 C0.615139205,2.60179924 0.0209119318,2.01927083 0.0209119318,1.303125 C0.0209119318,0.587026515 0.615090909,0.00445075758 1.34555966,0.00445075758 C2.07598011,0.00445075758 2.67020739,0.58688447 2.67020739,1.30298295 C2.67020739,2.01912879 2.07598011,2.60179924 1.34555966,2.60179924 Z M1.34555966,0.870170455 C1.10200568,0.870170455 0.903946023,1.06434659 0.903946023,1.3030303 C0.903946023,1.54171402 1.10200568,1.73589015 1.34555966,1.73589015 C1.58911364,1.73589015 1.7870767,1.54171402 1.7870767,1.3030303 C1.7870767,1.06434659 1.58896875,0.870170455 1.34555966,0.870170455 Z"
              id="Shape"
              fill-rule="nonzero"
            ></path>
            <path
              d="M8.41036364,2.60179924 C7.67994318,2.60179924 7.08571591,2.01927083 7.08571591,1.303125 C7.08571591,0.587026515 7.67989489,0.00445075758 8.41036364,0.00445075758 C9.14083239,0.00445075758 9.73510795,0.586979167 9.73510795,1.303125 C9.73515625,2.01927083 9.14083239,2.60179924 8.41036364,2.60179924 Z M8.41036364,0.870170455 C8.16680966,0.870170455 7.96884659,1.06434659 7.96884659,1.3030303 C7.96884659,1.54171402 8.16690625,1.73589015 8.41036364,1.73589015 C8.65382102,1.73589015 8.85188068,1.54171402 8.85188068,1.3030303 C8.85188068,1.06434659 8.65396591,0.870170455 8.41036364,0.870170455 Z"
              id="Shape"
              fill-rule="nonzero"
            ></path>
            <rect id="Rectangle" x="7.57325852" y="10.5066761" width="1" height="3.31306818"></rect>
            <rect id="Rectangle" x="1.29992045" y="10.5066761" width="1" height="3.31306818"></rect>
            <rect id="Rectangle" x="0.653534091" y="10.0739583" width="8.44808239" height="1"></rect>
            <rect id="Rectangle" x="0.653534091" y="11.7296875" width="8.44808239" height="1"></rect>
            <rect id="Rectangle" x="0.653534091" y="13.3866477" width="8.44808239" height="1"></rect>
            <rect id="Rectangle" x="3.00117614" y="15.0436553" width="3.75545455" height="1"></rect>
          </g>
        </g>
      </g>
    </g>
  </g>
</svg>